# Blender v2.78 (sub 0) OBJ File: 'human_low.blend'
# www.blender.org
mtllib hair_0.mtl
o Hair_Cube.001
v 0.077986 -0.140538 -0.008424
v 0.101165 -0.044968 0.108453
v 0.089123 0.079006 0.105426
v 0.098753 -0.052669 -0.074290
v 0.088993 0.081328 -0.073894
v -0.000001 0.131444 -0.028367
v -0.000001 0.121146 0.096453
v -0.088992 0.081328 -0.073894
v -0.000001 0.081284 -0.120881
v -0.000001 -0.079307 -0.140270
v -0.098752 -0.052669 -0.074290
v -0.089122 0.079006 0.105426
v -0.101163 -0.044968 0.108453
v -0.000001 0.061786 0.169267
v -0.000001 -0.160676 -0.090743
v -0.077985 -0.140538 -0.008424
v 0.067853 -0.132738 0.001192
v 0.085222 -0.046313 0.108585
v 0.077009 0.068946 0.102593
v 0.085866 -0.050744 -0.065006
v 0.077075 0.073226 -0.066943
v -0.000001 0.115614 -0.026041
v -0.000001 0.105967 0.091395
v -0.077074 0.073226 -0.066943
v -0.000001 0.073359 -0.106982
v -0.000001 -0.074523 -0.125003
v -0.085864 -0.050743 -0.065006
v -0.077007 0.068947 0.102593
v -0.085221 -0.046313 0.108585
v -0.000001 0.049385 0.159157
v -0.000001 -0.150597 -0.078317
v -0.067852 -0.132738 0.001192
vt 0.4947 0.3563
vt 0.5346 0.3473
vt 0.5581 0.3857
vt 0.5199 0.3989
vt 0.4370 0.4006
vt 0.5207 0.4667
vt 0.4400 0.4635
vt 0.5000 0.4481
vt 0.5427 0.4635
vt 0.5000 0.4839
vt 0.5000 0.5546
vt 0.5000 0.5098
vt 0.5427 0.5207
vt 0.5427 0.4400
vt 0.5000 0.4457
vt 0.5000 0.3857
vt 0.5000 0.4561
vt 0.5427 0.4667
vt 0.5475 0.3989
vt 0.4525 0.3989
vt 0.4573 0.4667
vt 0.4573 0.4400
vt 0.4573 0.5207
vt 0.4573 0.4635
vt 0.4370 0.4006
vt 0.4400 0.4635
vt 0.5207 0.4667
vt 0.5199 0.3989
vt 0.4947 0.3563
vt 0.4947 0.3563
vt 0.5199 0.3989
vt 0.5581 0.3857
vt 0.5346 0.3473
vt 0.4370 0.4006
vt 0.4400 0.4635
vt 0.5207 0.4667
vt 0.5000 0.4481
vt 0.5000 0.4839
vt 0.5427 0.4635
vt 0.5000 0.5546
vt 0.5427 0.5207
vt 0.5000 0.5098
vt 0.5427 0.4400
vt 0.5000 0.4457
vt 0.5000 0.3857
vt 0.5475 0.3989
vt 0.5427 0.4667
vt 0.5000 0.4561
vt 0.4573 0.4667
vt 0.4525 0.3989
vt 0.4573 0.4400
vt 0.4573 0.5207
vt 0.4573 0.4635
vt 0.4370 0.4006
vt 0.5199 0.3989
vt 0.5207 0.4667
vt 0.4400 0.4635
vt 0.4947 0.3563
vn 0.6345 -0.6255 0.4538
vn 0.0000 -0.9195 -0.3931
vn 0.0000 -0.2990 -0.9542
vn 0.9044 -0.2299 -0.3595
vn 0.5535 -0.5469 0.6281
vn 0.7449 0.5064 -0.4345
vn 0.7468 0.3992 0.5318
vn 0.0000 -0.0609 0.9981
vn 0.0000 0.9487 0.3161
vn 0.0000 0.4953 -0.8687
vn 0.0000 0.9893 -0.1454
vn -0.9044 -0.2299 -0.3595
vn -0.7449 0.5064 -0.4344
vn -0.7468 0.3992 0.5318
vn -0.5535 -0.5469 0.6281
vn -0.6345 -0.6255 0.4539
vn -0.1521 0.0032 0.9883
vn -0.4892 -0.2127 0.8458
vn 0.0000 0.3081 0.9513
vn 0.0000 -0.4062 0.9138
vn -0.6027 -0.5690 0.5593
vn -0.3380 -0.7366 0.5858
vn -0.7477 -0.5048 0.4314
vn 0.0000 -0.9751 0.2218
vn 0.0000 -0.9483 -0.3173
vn 0.0000 -0.5000 0.8660
vn 0.0000 -0.9910 0.1337
vn 0.7477 -0.5048 0.4314
vn 0.4892 -0.2127 0.8458
vn 0.3380 -0.7366 0.5858
vn 0.6027 -0.5690 0.5593
vn 0.1521 0.0032 0.9883
usemtl skin
s 1
f 1/1/1 15/2/2 10/3/3 4/4/4
f 2/5/5 4/4/4 5/6/6 3/7/7
f 14/8/8 3/9/7 7/10/9
f 9/11/10 6/12/11 5/13/6
f 3/14/7 5/13/6 6/12/11 7/15/9
f 10/16/3 9/17/10 5/18/6 4/19/4
f 10/16/3 11/20/12 8/21/13 9/17/10
f 12/22/14 7/15/9 6/12/11 8/23/13
f 9/11/10 8/23/13 6/12/11
f 14/8/8 7/10/9 12/24/14
f 13/25/15 12/26/14 8/27/13 11/28/12
f 16/29/16 11/28/12 10/3/3 15/2/2
f 17/30/17 20/31/18 26/32/19 31/33/20
f 18/34/21 19/35/22 21/36/23 20/31/18
f 30/37/24 23/38/25 19/39/22
f 25/40/26 21/41/23 22/42/27
f 19/43/22 23/44/25 22/42/27 21/41/23
f 26/45/19 20/46/18 21/47/23 25/48/26
f 26/45/19 25/48/26 24/49/28 27/50/29
f 28/51/30 24/52/28 22/42/27 23/44/25
f 25/40/26 22/42/27 24/52/28
f 30/37/24 28/53/30 23/38/25
f 29/54/31 27/55/29 24/56/28 28/57/30
f 32/58/32 31/33/20 26/32/19 27/55/29
f 2/5/5 3/7/7 19/35/22 18/34/21
f 1/1/1 4/4/4 20/31/18 17/30/17
f 4/4/4 2/5/5 18/34/21 20/31/18
f 14/8/8 12/24/14 28/53/30 30/37/24
f 13/25/15 11/28/12 27/55/29 29/54/31
f 11/28/12 16/29/16 32/58/32 27/55/29
f 12/26/14 13/25/15 29/54/31 28/57/30
f 16/29/16 15/2/2 31/33/20 32/58/32
f 3/9/7 14/8/8 30/37/24 19/39/22
f 15/2/2 1/1/1 17/30/17 31/33/20
