# Blender v2.78 (sub 0) OBJ File: ''
# www.blender.org
mtllib target.mtl
o Cylinder
v 0.232277 6.479670 -1.009179
v 1.043663 6.433129 -0.190970
v 0.512165 6.490314 0.918529
v -0.653594 6.447361 0.822150
v -1.018371 6.495074 -0.215924
v -0.541054 6.488206 -0.855050
v 0.592792 0.386012 -0.887176
v 0.316526 2.052880 -0.638822
v 0.345661 5.478347 -0.623178
v 0.708765 5.507490 0.082555
v 0.702260 2.061593 -0.010022
v 1.022830 0.385391 0.171867
v 0.391174 2.042118 0.583870
v 0.325977 5.503652 0.612633
v 0.242526 0.386232 1.046165
v -0.270375 5.499667 0.648768
v -0.401447 2.073309 0.603146
v -0.913918 0.385710 0.525364
v -0.689643 5.499667 0.135627
v -0.689460 2.042118 -0.136257
v -0.764469 0.386498 -0.764470
v -0.451132 5.492758 -0.552458
v -0.336925 2.020659 -0.606557
v 0.097492 -0.114942 -1.445811
v 1.399011 0.385058 -0.377681
v 1.373064 -0.114942 -0.463218
v 1.111777 -0.114942 0.861159
v 1.061509 0.385058 0.922410
v 0.305256 -0.114942 1.357256
v 0.237380 0.385058 1.370757
v -0.756288 -0.114942 1.208512
v -0.827103 0.385058 1.161196
v -1.395076 -0.114942 0.177212
v -1.402843 0.385058 0.098356
v -1.061508 0.385058 -0.922412
v -1.111776 -0.114942 -0.861160
v 0.186447 0.385058 -1.437050
v 0.180075 7.973227 -1.020773
v 1.000383 7.976006 -0.328247
v 0.736702 7.967045 0.736704
v -0.407359 7.987715 0.983447
v -1.015684 7.971608 0.121020
v -0.748698 7.973227 -0.716839
v -0.000001 9.124165 -0.000000
v 0.172884 5.227649 -1.639920
v -0.449679 5.251151 -1.639920
v 0.130859 9.339460 -1.465629
v -0.616840 9.339460 -1.465629
v -0.211514 7.358352 -6.289977
v -0.896645 7.370102 -6.289977
vn 0.8161 -0.4143 -0.4028
vn 0.7700 -0.3170 0.5537
vn 0.0596 -0.3058 0.9502
vn -0.7117 -0.3942 0.5815
vn -0.8702 -0.3925 -0.2977
vn -0.0888 -0.3670 -0.9260
vn 0.0015 1.0000 0.0004
vn -0.0021 1.0000 -0.0051
vn -0.8004 -0.0170 -0.5992
vn -0.9895 0.0883 -0.1146
vn -0.9310 -0.0287 0.3639
vn -0.4093 0.0824 0.9087
vn 0.0002 1.0000 -0.0019
vn 0.7409 0.1181 0.6611
vn 0.8859 -0.0141 0.4636
vn 0.9181 0.1351 -0.3727
vn 0.0011 1.0000 0.0001
vn -0.0010 1.0000 0.0012
vn 0.0014 1.0000 0.0004
vn -0.0017 1.0000 0.0004
vn 0.5075 0.6148 -0.6037
vn 0.2115 0.0877 0.9734
vn -0.8002 -0.0563 -0.5970
vn -0.2435 0.6219 -0.7442
vn -0.6480 0.6178 0.4455
vn 0.7664 0.6121 0.1949
vn -0.7413 0.6286 -0.2350
vn 0.1781 0.6066 0.7748
vn 0.6917 -0.1903 -0.6967
vn 0.8813 -0.1912 0.4321
vn -0.0730 -0.2080 0.9754
vn -0.9282 -0.1945 0.3172
vn -0.7779 -0.2460 -0.5783
vn -0.1896 -0.3012 -0.9345
vn 0.0000 -1.0000 -0.0000
vn -0.0782 0.1253 -0.9890
vn -0.0709 0.0092 -0.9974
vn 0.0396 -0.0112 0.9992
vn -0.7675 0.2575 -0.5871
vn 0.0043 1.0000 -0.0049
vn -0.9445 0.0257 -0.3276
vn -0.9037 0.2587 0.3411
vn -0.0025 1.0000 0.0014
vn -0.7742 0.0212 0.6326
vn 0.0020 1.0000 0.0036
vn 0.0339 0.2659 0.9634
vn 0.8720 0.0032 -0.4894
vn 0.8106 0.0104 0.5855
vn 0.8623 0.2147 0.4587
vn 0.8313 0.2142 -0.5129
vn -0.4084 0.0089 -0.9128
vn -0.9569 0.0000 -0.2903
vn -0.8650 -0.0047 0.5017
vn -0.1662 0.0103 0.9860
vn 0.5012 -0.0055 0.8653
vn 0.9749 -0.0089 0.2224
vn 0.6344 0.0000 -0.7730
vn 0.7082 -0.0428 -0.7047
vn -0.0041 1.0000 -0.0014
vn -0.0007 1.0000 0.0036
vn 0.8971 -0.0830 0.4340
vn -0.0787 -0.0914 0.9927
vn -0.9504 0.0708 -0.3027
vn 0.0844 -0.4918 0.8666
vn -0.8158 0.0703 0.5741
vn -0.9420 -0.0731 0.3276
vn 0.9694 0.0486 0.2404
vn 0.0076 0.9252 -0.3793
vn 0.1642 0.3907 0.9058
vn 0.6450 0.0166 -0.7640
vn -0.9962 -0.0440 0.0757
vn -0.9872 -0.0581 -0.1486
vn 0.9950 0.0196 -0.0984
vn 0.9970 0.0134 -0.0763
vn -0.0245 -0.9101 -0.4137
usemtl None
s off
f 9//1 2//1 10//1
f 3//2 14//2 10//2
f 3//3 16//3 14//3
f 4//4 19//4 16//4
f 5//5 22//5 19//5
f 1//6 9//6 22//6
f 15//7 28//7 12//7
f 21//8 37//8 35//8
f 22//9 23//9 20//9
f 20//10 21//10 18//10
f 19//11 20//11 17//11
f 17//12 18//12 15//12
f 7//13 37//13 21//13
f 13//14 15//14 12//14
f 10//15 13//15 11//15
f 11//16 12//16 7//16
f 12//17 25//17 7//17
f 18//18 32//18 15//18
f 12//19 28//19 25//19
f 21//20 34//20 18//20
f 39//21 38//21 44//21
f 3//22 40//22 41//22
f 5//23 43//23 6//23
f 38//24 43//24 44//24
f 42//25 41//25 44//25
f 40//26 39//26 44//26
f 43//27 42//27 44//27
f 41//28 40//28 44//28
f 1//29 2//29 9//29
f 2//30 3//30 10//30
f 16//31 3//31 4//31
f 4//32 5//32 19//32
f 5//33 6//33 22//33
f 6//34 1//34 22//34
f 26//35 27//35 29//35 31//35 33//35 36//35 24//35
f 8//36 7//36 21//36 23//36
f 8//37 23//37 22//37 9//37
f 17//38 13//38 14//38 16//38
f 20//39 23//39 21//39
f 7//40 25//40 37//40
f 19//41 22//41 20//41
f 17//42 20//42 18//42
f 18//43 34//43 32//43
f 16//44 19//44 17//44
f 15//45 30//45 28//45
f 13//46 17//46 15//46
f 11//47 8//47 9//47 10//47
f 10//48 14//48 13//48
f 11//49 13//49 12//49
f 7//50 8//50 11//50
f 24//51 36//51 35//51 37//51
f 36//52 33//52 34//52 35//52
f 33//53 31//53 32//53 34//53
f 31//54 29//54 30//54 32//54
f 29//55 27//55 28//55 30//55
f 27//56 26//56 25//56 28//56
f 26//57 24//57 37//57 25//57
f 39//58 2//58 1//58
f 21//59 35//59 34//59
f 15//60 32//60 30//60
f 3//61 2//61 40//61
f 4//62 3//62 41//62
f 5//63 42//63 43//63
f 1//64 6//64 46//64 45//64
f 4//65 41//65 42//65
f 5//66 4//66 42//66
f 2//67 39//67 40//67
f 48//68 47//68 49//68 50//68
f 43//69 38//69 47//69 48//69
f 1//70 38//70 39//70
f 46//71 48//71 50//71
f 6//72 43//72 48//72 46//72
f 38//73 1//73 45//73 47//73
f 47//74 45//74 49//74
f 45//75 46//75 50//75 49//75
